<?xml version="1.0" encoding="UTF-8" standalone="no"?>
<!DOCTYPE svg PUBLIC "-//W3C//DTD SVG 1.1//EN" "http://www.w3.org/Graphics/SVG/1.1/DTD/svg11.dtd">
<svg width="100%" height="100%" viewBox="0 0 512 512" version="1.1" xmlns="http://www.w3.org/2000/svg" xmlns:xlink="http://www.w3.org/1999/xlink" xml:space="preserve" xmlns:serif="http://www.serif.com/" style="fill-rule:evenodd;clip-rule:evenodd;stroke-linejoin:round;stroke-miterlimit:2;">
    <g transform="matrix(1.14237,0,0,1.14237,-33.8092,-24.4981)">
        <g transform="matrix(1.1862,0.237435,-0.224944,1.1238,60.7916,-102.009)">
            <path d="M199.327,418.062C193.334,460.026 167.769,477.268 128.813,477.595C166.812,441.335 166.064,408.679 129.464,379.359" style="fill:rgb(0,232,255);"/>
        </g>
        <g transform="matrix(1.41089,0,0,1.41089,-195.281,-221.492)">
            <circle cx="320.5" cy="327.5" r="142.5" style="fill:rgb(0,232,255);"/>
        </g>
    </g>
    <g id="Layer2">
        <path d="M189.5,469.064C200.074,463.457 208.917,450.177 214,442C218.013,435.544 219.518,427.494 220,420L220,200C231.381,217.45 274.956,221.273 300,220C339.673,217.983 361.34,214.034 380,200C404.015,181.938 397.708,107.958 372.489,86.681C352.619,69.917 327.91,65.506 300,60C285.214,57.083 160.427,43.391 160,100C159.703,139.36 160,304.061 160,304.061C160,304.061 160.5,379.01 160,400C159.749,410.538 161.191,420.48 157,430C153.93,436.975 148.536,439.525 139.5,446.069C152.927,455.852 170.041,463.224 189.5,469.064ZM292.08,94.999C335.749,95.447 364.107,103.968 364.159,144.999C364.205,181.755 346.438,194.882 292.08,194.999C234.467,195.124 220.063,173.89 220,144.999C219.904,100.548 243.742,94.504 292.08,94.999Z" style="fill:rgb(255,69,0);"/>
    </g>
    <path d="M142.887,422.707L191.116,422.707" style="fill:none;"/>
</svg>
